<svg xmlns="http://www.w3.org/2000/svg" width="50" height="50" viewBox="0 0 50 50">
  <g id="Grupo_46" data-name="Grupo 46" transform="translate(-215.707 -1978.5)">
    <g id="Grupo_42" data-name="Grupo 42" transform="translate(215.707 1978.5)">
      <path id="Trazado_43" data-name="Trazado 43" d="M8.4,0H33.6A8.4,8.4,0,0,1,42,8.4V33.6A8.4,8.4,0,0,1,33.6,42H8.4A8.4,8.4,0,0,1,0,33.6V8.4A8.4,8.4,0,0,1,8.4,0Z" transform="translate(5 8)" fill="#fff"/>
      <path id="facebook" d="M43.264,0H6.74A6.738,6.738,0,0,0,0,6.738V43.262A6.738,6.738,0,0,0,6.74,50H24.753l.031-17.867H20.142a1.1,1.1,0,0,1-1.1-1.091l-.022-5.759a1.1,1.1,0,0,1,1.1-1.1h4.633V18.618c0-6.458,3.944-9.975,9.705-9.975h4.727a1.1,1.1,0,0,1,1.1,1.1v4.856a1.1,1.1,0,0,1-1.095,1.1h-2.9c-3.133,0-3.74,1.489-3.74,3.674v4.818H39.43a1.1,1.1,0,0,1,1.088,1.224l-.683,5.759a1.1,1.1,0,0,1-1.088.966H32.577L32.546,50H43.264A6.738,6.738,0,0,0,50,43.263V6.738A6.738,6.738,0,0,0,43.264,0Z" transform="translate(-0.002 0)" fill="#475993"/>
    </g>
  </g>
</svg>
